<svg id="svg3542" height="21.913mm" width="168.74mm" version="1.1" viewBox="0 0 597.91431 77.643914">
 <defs id="defs3544">
  <filter id="filter6021" style="color-interpolation-filters:sRGB">
   <feFlood id="feFlood6023" result="flood" flood-opacity=".49804" flood-color="rgb(0,0,0)"/>
   <feComposite id="feComposite6025" operator="in" result="composite1" in2="SourceGraphic" in="flood"/>
   <feGaussianBlur id="feGaussianBlur6027" stdDeviation="3" result="blur" in="composite1"/>
   <feOffset id="feOffset6029" result="offset" dx="6" dy="6"/>
   <feComposite id="feComposite6031" operator="over" result="composite2" in2="offset" in="SourceGraphic"/>
  </filter>
 </defs>
 <g id="layer1" transform="translate(-623.9 295.03)">
  <g id="g6014" transform="translate(-153.57 1274.5)" filter="url(#filter6021)">
   <text id="text3365-6-5-6" style="word-spacing:0px;letter-spacing:0px" font-weight="600" font-size="50px" font-style="italic" y="-1510.3744" x="824.00177" font-family="&apos;Open Sans&apos;" xml:space="preserve"><tspan id="tspan3373-3-1-62" font-weight="600" font-size="50px" font-style="italic" y="-1510.3744" x="824.00177" font-family="&apos;Open Sans&apos;">Connec   ion </tspan></text>
   <path id="path3395-8-6-2-7" d="m1031.5-1538.9-15.848 0.076c-0.3921 0-0.6466-0.5346-0.4683-0.9871l8.7598-22.221c0.2634-0.6681-0.3814-1.314-0.8142-0.8157l-27.274 31.402c-0.35829 0.4126-0.13598 1.1803 0.34336 1.1855l14.468 0.1604c0.3772 0 0.6274 0.508 0.4739 0.9545l-7.3598 21.41c-0.2282 0.6636 0.3997 1.2649 0.8225 0.7874l27.243-30.763c0.3656-0.4127 0.139-1.1922-0.346-1.1899z"/>
   <text id="text3365-9-6-9-7" style="word-spacing:0px;letter-spacing:0px" font-weight="600" font-size="50px" font-style="italic" y="-1510.3744" x="1120.1641" font-family="&apos;Open Sans&apos;" xml:space="preserve"><tspan id="tspan3373-5-4-7-6" font-weight="600" font-size="50px" font-style="italic" y="-1510.3744" x="1120.1641" font-family="&apos;Open Sans&apos;">Required</tspan></text>
  </g>
 </g>
</svg>
