<svg version="1.2" viewBox="0 0 17780 20320" preserveAspectRatio="xMidYMid" fill-rule="evenodd" stroke-width="28.222" stroke-linejoin="round" xmlns="http://www.w3.org/2000/svg" xmlns:ooo="http://xml.openoffice.org/svg/export" xmlns:xlink="http://www.w3.org/1999/xlink" xmlns:presentation="http://sun.com/xmlns/staroffice/presentation" xmlns:smil="http://www.w3.org/2001/SMIL20/" xmlns:anim="urn:oasis:names:tc:opendocument:xmlns:animation:1.0" xml:space="preserve">
 <defs class="ClipPathGroup">
  <clipPath id="presentation_clip_path" clipPathUnits="userSpaceOnUse">
   <rect x="0" y="0" width="17780" height="20320"/>
  </clipPath>
 </defs>
 <defs class="TextShapeIndex">
  <g ooo:slide="id1" ooo:id-list="id3 id4 id5 id6 id7 id8 id9 id10 id11 id12 id13 id14 id15 id16 id17 id18 id19 id20 id21 id22 id23 id24 id25 id26 id27 id28 id29 id30 id31 id32 id33"/>
 </defs>
 <defs class="EmbeddedBulletChars">
  <g id="bullet-char-template(57356)" transform="scale(0.00048828125,-0.00048828125)">
   <path d="M 580,1141 L 1163,571 580,0 -4,571 580,1141 Z"/>
  </g>
  <g id="bullet-char-template(57354)" transform="scale(0.00048828125,-0.00048828125)">
   <path d="M 8,1128 L 1137,1128 1137,0 8,0 8,1128 Z"/>
  </g>
  <g id="bullet-char-template(10146)" transform="scale(0.00048828125,-0.00048828125)">
   <path d="M 174,0 L 602,739 174,1481 1456,739 174,0 Z M 1358,739 L 309,1346 659,739 1358,739 Z"/>
  </g>
  <g id="bullet-char-template(10132)" transform="scale(0.00048828125,-0.00048828125)">
   <path d="M 2015,739 L 1276,0 717,0 1260,543 174,543 174,936 1260,936 717,1481 1274,1481 2015,739 Z"/>
  </g>
  <g id="bullet-char-template(10007)" transform="scale(0.00048828125,-0.00048828125)">
   <path d="M 0,-2 C -7,14 -16,27 -25,37 L 356,567 C 262,823 215,952 215,954 215,979 228,992 255,992 264,992 276,990 289,987 310,991 331,999 354,1012 L 381,999 492,748 772,1049 836,1024 860,1049 C 881,1039 901,1025 922,1006 886,937 835,863 770,784 769,783 710,716 594,584 L 774,223 C 774,196 753,168 711,139 L 727,119 C 717,90 699,76 672,76 641,76 570,178 457,381 L 164,-76 C 142,-110 111,-127 72,-127 30,-127 9,-110 8,-76 1,-67 -2,-52 -2,-32 -2,-23 -1,-13 0,-2 Z"/>
  </g>
  <g id="bullet-char-template(10004)" transform="scale(0.00048828125,-0.00048828125)">
   <path d="M 285,-33 C 182,-33 111,30 74,156 52,228 41,333 41,471 41,549 55,616 82,672 116,743 169,778 240,778 293,778 328,747 346,684 L 369,508 C 377,444 397,411 428,410 L 1163,1116 C 1174,1127 1196,1133 1229,1133 1271,1133 1292,1118 1292,1087 L 1292,965 C 1292,929 1282,901 1262,881 L 442,47 C 390,-6 338,-33 285,-33 Z"/>
  </g>
  <g id="bullet-char-template(9679)" transform="scale(0.00048828125,-0.00048828125)">
   <path d="M 813,0 C 632,0 489,54 383,161 276,268 223,411 223,592 223,773 276,916 383,1023 489,1130 632,1184 813,1184 992,1184 1136,1130 1245,1023 1353,916 1407,772 1407,592 1407,412 1353,268 1245,161 1136,54 992,0 813,0 Z"/>
  </g>
  <g id="bullet-char-template(8226)" transform="scale(0.00048828125,-0.00048828125)">
   <path d="M 346,457 C 273,457 209,483 155,535 101,586 74,649 74,723 74,796 101,859 155,911 209,963 273,989 346,989 419,989 480,963 531,910 582,859 608,796 608,723 608,648 583,586 532,535 482,483 420,457 346,457 Z"/>
  </g>
  <g id="bullet-char-template(8211)" transform="scale(0.00048828125,-0.00048828125)">
   <path d="M -4,459 L 1135,459 1135,606 -4,606 -4,459 Z"/>
  </g>
 </defs>
 <defs class="TextEmbeddedBitmaps"/>
 <g>
  <g id="id2" class="Master_Slide">
   <g id="bg-id2" class="Background"/>
   <g id="bo-id2" class="BackgroundObjects"/>
  </g>
 </g>
 <g class="SlideGroup">
  <g>
   <g id="id1" class="Slide" clip-path="url(#presentation_clip_path)">
    <g class="Page">
     <g class="com.sun.star.drawing.CustomShape">
      <g id="id3">
       <rect class="BoundingBox" stroke="none" fill="none" x="6349" y="15239" width="5083" height="5083"/>
       <path fill="rgb(255,99,71)" stroke="none" d="M 8890,20320 L 6350,20320 6350,15240 11430,15240 11430,20320 8890,20320 Z"/>
       <path fill="none" stroke="rgb(52,101,164)" d="M 8890,20320 L 6350,20320 6350,15240 11430,15240 11430,20320 8890,20320 Z"/>
       <text class="TextShape"><tspan class="TextParagraph" font-family="Georgia, serif" font-size="706px" font-weight="700"><tspan class="TextPosition" x="6854" y="18026"><tspan fill="rgb(0,0,0)" stroke="none">Time Entry</tspan></tspan></tspan></text>
      </g>
     </g>
     <g class="com.sun.star.drawing.CustomShape">
      <g id="id4">
       <rect class="BoundingBox" stroke="none" fill="none" x="-1" y="7619" width="5083" height="5083"/>
       <path fill="rgb(60,179,113)" stroke="none" d="M 2540,12700 L 0,12700 0,7620 5080,7620 5080,12700 2540,12700 Z"/>
       <path fill="none" stroke="rgb(52,101,164)" d="M 2540,12700 L 0,12700 0,7620 5080,7620 5080,12700 2540,12700 Z"/>
       <text class="TextShape"><tspan class="TextParagraph" font-family="Georgia, serif" font-size="706px" font-weight="700"><tspan class="TextPosition" x="1679" y="10406"><tspan fill="rgb(0,0,0)" stroke="none">User</tspan></tspan></tspan></text>
      </g>
     </g>
     <g class="com.sun.star.drawing.CustomShape">
      <g id="id5">
       <rect class="BoundingBox" stroke="none" fill="none" x="12699" y="7619" width="5083" height="5083"/>
       <path fill="rgb(192,192,192)" stroke="none" d="M 15240,12700 L 12700,12700 12700,7620 17780,7620 17780,12700 15240,12700 Z"/>
       <path fill="none" stroke="rgb(52,101,164)" d="M 15240,12700 L 12700,12700 12700,7620 17780,7620 17780,12700 15240,12700 Z"/>
       <text class="TextShape"><tspan class="TextParagraph" font-family="Georgia, serif" font-size="706px" font-weight="700"><tspan class="TextPosition" x="14383" y="10406"><tspan fill="rgb(0,0,0)" stroke="none">Task</tspan></tspan></tspan></text>
      </g>
     </g>
     <g class="com.sun.star.drawing.CustomShape">
      <g id="id6">
       <rect class="BoundingBox" stroke="none" fill="none" x="6349" y="7619" width="5083" height="5083"/>
       <path fill="rgb(255,255,102)" stroke="none" d="M 8890,12700 L 6350,12700 6350,7620 11430,7620 11430,12700 8890,12700 Z"/>
       <path fill="none" stroke="rgb(52,101,164)" d="M 8890,12700 L 6350,12700 6350,7620 11430,7620 11430,12700 8890,12700 Z"/>
       <text class="TextShape"><tspan class="TextParagraph" font-family="Georgia, serif" font-size="706px" font-weight="700"><tspan class="TextPosition" x="7582" y="10406"><tspan fill="rgb(0,0,0)" stroke="none">Project</tspan></tspan></tspan></text>
      </g>
     </g>
     <g class="com.sun.star.drawing.LineShape">
      <g id="id7">
       <rect class="BoundingBox" stroke="none" fill="none" x="11430" y="12699" width="3812" height="2542"/>
       <path fill="none" stroke="rgb(0,0,0)" d="M 15240,12700 L 11788,15001"/>
       <path fill="rgb(0,0,0)" stroke="none" d="M 11430,15240 L 11888,15115 11721,14866 11430,15240 Z"/>
      </g>
     </g>
     <g class="com.sun.star.drawing.TextShape">
      <g id="id8">
       <rect class="BoundingBox" stroke="none" fill="none" x="11430" y="15167" width="880" height="976"/>
       <text class="TextShape"><tspan class="TextParagraph" font-family="Georgia, serif" font-size="635px" font-weight="400"><tspan class="TextPosition" x="11680" y="15876"><tspan fill="rgb(0,0,0)" stroke="none">n</tspan></tspan></tspan></text>
      </g>
     </g>
     <g class="com.sun.star.drawing.TextShape">
      <g id="id9">
       <rect class="BoundingBox" stroke="none" fill="none" x="15182" y="12700" width="774" height="976"/>
       <text class="TextShape"><tspan class="TextParagraph" font-family="Georgia, serif" font-size="635px" font-weight="400"><tspan class="TextPosition" x="15432" y="13409"><tspan fill="rgb(0,0,0)" stroke="none">1</tspan></tspan></tspan></text>
      </g>
     </g>
     <g class="com.sun.star.drawing.LineShape">
      <g id="id10">
       <rect class="BoundingBox" stroke="none" fill="none" x="8613" y="12699" width="301" height="2542"/>
       <path fill="none" stroke="rgb(0,0,0)" d="M 8763,12700 L 8763,14810"/>
       <path fill="rgb(0,0,0)" stroke="none" d="M 8763,15240 L 8913,14790 8613,14790 8763,15240 Z"/>
      </g>
     </g>
     <g class="com.sun.star.drawing.TextShape">
      <g id="id11">
       <rect class="BoundingBox" stroke="none" fill="none" x="1720" y="12700" width="774" height="976"/>
       <text class="TextShape"><tspan class="TextParagraph" font-family="Georgia, serif" font-size="635px" font-weight="400"><tspan class="TextPosition" x="1970" y="13409"><tspan fill="rgb(0,0,0)" stroke="none">1</tspan></tspan></tspan></text>
      </g>
     </g>
     <g class="com.sun.star.drawing.TextShape">
      <g id="id12">
       <rect class="BoundingBox" stroke="none" fill="none" x="8832" y="12703" width="774" height="976"/>
       <text class="TextShape"><tspan class="TextParagraph" font-family="Georgia, serif" font-size="635px" font-weight="400"><tspan class="TextPosition" x="9082" y="13412"><tspan fill="rgb(0,0,0)" stroke="none">1</tspan></tspan></tspan></text>
      </g>
     </g>
     <g class="com.sun.star.drawing.TextShape">
      <g id="id13">
       <rect class="BoundingBox" stroke="none" fill="none" x="8799" y="14224" width="880" height="976"/>
       <text class="TextShape"><tspan class="TextParagraph" font-family="Georgia, serif" font-size="635px" font-weight="400"><tspan class="TextPosition" x="9049" y="14933"><tspan fill="rgb(0,0,0)" stroke="none">n</tspan></tspan></tspan></text>
      </g>
     </g>
     <g class="com.sun.star.drawing.LineShape">
      <g id="id14">
       <rect class="BoundingBox" stroke="none" fill="none" x="2539" y="12699" width="3812" height="2542"/>
       <path fill="none" stroke="rgb(0,0,0)" d="M 2540,12700 L 5992,15001"/>
       <path fill="rgb(0,0,0)" stroke="none" d="M 6350,15240 L 6059,14866 5892,15115 6350,15240 Z"/>
      </g>
     </g>
     <g class="com.sun.star.drawing.TextShape">
      <g id="id15">
       <rect class="BoundingBox" stroke="none" fill="none" x="5461" y="15167" width="880" height="976"/>
       <text class="TextShape"><tspan class="TextParagraph" font-family="Georgia, serif" font-size="635px" font-weight="400"><tspan class="TextPosition" x="5711" y="15876"><tspan fill="rgb(0,0,0)" stroke="none">n</tspan></tspan></tspan></text>
      </g>
     </g>
     <g class="com.sun.star.drawing.CustomShape">
      <g id="id16">
       <rect class="BoundingBox" stroke="none" fill="none" x="3174" y="-1" width="5083" height="5083"/>
       <path fill="rgb(173,255,47)" stroke="none" d="M 5715,5080 L 3175,5080 3175,0 8255,0 8255,5080 5715,5080 Z"/>
       <path fill="none" stroke="rgb(52,101,164)" d="M 5715,5080 L 3175,5080 3175,0 8255,0 8255,5080 5715,5080 Z"/>
       <text class="TextShape"><tspan class="TextParagraph" font-family="Georgia, serif" font-size="706px" font-weight="700"><tspan class="TextPosition" x="4765" y="2383"><tspan fill="rgb(0,0,0)" stroke="none">User </tspan></tspan></tspan><tspan class="TextParagraph" font-family="Georgia, serif" font-size="706px" font-weight="700"><tspan class="TextPosition" x="3567" y="3188"><tspan fill="rgb(0,0,0)" stroke="none">Assignment</tspan></tspan></tspan></text>
      </g>
     </g>
     <g class="com.sun.star.drawing.LineShape">
      <g id="id17">
       <rect class="BoundingBox" stroke="none" fill="none" x="3556" y="5079" width="1526" height="2542"/>
       <path fill="none" stroke="rgb(0,0,0)" d="M 5080,5080 L 3777,7251"/>
       <path fill="rgb(0,0,0)" stroke="none" d="M 3556,7620 L 3916,7311 3659,7157 3556,7620 Z"/>
      </g>
     </g>
     <g class="com.sun.star.drawing.LineShape">
      <g id="id18">
       <rect class="BoundingBox" stroke="none" fill="none" x="6349" y="5079" width="1399" height="2542"/>
       <path fill="none" stroke="rgb(0,0,0)" d="M 6350,5080 L 7540,7243"/>
       <path fill="rgb(0,0,0)" stroke="none" d="M 7747,7620 L 7662,7153 7399,7298 7747,7620 Z"/>
      </g>
     </g>
     <g class="com.sun.star.drawing.CustomShape">
      <g id="id19">
       <rect class="BoundingBox" stroke="none" fill="none" x="9524" y="-1" width="5083" height="5083"/>
       <path fill="rgb(255,235,205)" stroke="none" d="M 12065,5080 L 9525,5080 9525,0 14605,0 14605,5080 12065,5080 Z"/>
       <path fill="none" stroke="rgb(52,101,164)" d="M 12065,5080 L 9525,5080 9525,0 14605,0 14605,5080 12065,5080 Z"/>
       <text class="TextShape"><tspan class="TextParagraph" font-family="Georgia, serif" font-size="706px" font-weight="700"><tspan class="TextPosition" x="11119" y="2383"><tspan fill="rgb(0,0,0)" stroke="none">Task </tspan></tspan></tspan><tspan class="TextParagraph" font-family="Georgia, serif" font-size="706px" font-weight="700"><tspan class="TextPosition" x="9917" y="3188"><tspan fill="rgb(0,0,0)" stroke="none">Assignment</tspan></tspan></tspan></text>
      </g>
     </g>
     <g class="com.sun.star.drawing.LineShape">
      <g id="id20">
       <rect class="BoundingBox" stroke="none" fill="none" x="10160" y="5079" width="1272" height="2542"/>
       <path fill="none" stroke="rgb(0,0,0)" d="M 11430,5080 L 10352,7235"/>
       <path fill="rgb(0,0,0)" stroke="none" d="M 10160,7620 L 10495,7285 10227,7150 10160,7620 Z"/>
      </g>
     </g>
     <g class="com.sun.star.drawing.LineShape">
      <g id="id21">
       <rect class="BoundingBox" stroke="none" fill="none" x="12699" y="5079" width="1399" height="2542"/>
       <path fill="none" stroke="rgb(0,0,0)" d="M 12700,5080 L 13890,7243"/>
       <path fill="rgb(0,0,0)" stroke="none" d="M 14097,7620 L 14012,7153 13749,7298 14097,7620 Z"/>
      </g>
     </g>
     <g class="com.sun.star.drawing.TextShape">
      <g id="id22">
       <rect class="BoundingBox" stroke="none" fill="none" x="2794" y="6604" width="774" height="976"/>
       <text class="TextShape"><tspan class="TextParagraph" font-family="Georgia, serif" font-size="635px" font-weight="400"><tspan class="TextPosition" x="3044" y="7313"><tspan fill="rgb(0,0,0)" stroke="none">1</tspan></tspan></tspan></text>
      </g>
     </g>
     <g class="com.sun.star.drawing.TextShape">
      <g id="id23">
       <rect class="BoundingBox" stroke="none" fill="none" x="3820" y="5080" width="880" height="976"/>
       <text class="TextShape"><tspan class="TextParagraph" font-family="Georgia, serif" font-size="635px" font-weight="400"><tspan class="TextPosition" x="4070" y="5789"><tspan fill="rgb(0,0,0)" stroke="none">n</tspan></tspan></tspan></text>
      </g>
     </g>
     <g class="com.sun.star.drawing.TextShape">
      <g id="id24">
       <rect class="BoundingBox" stroke="none" fill="none" x="7747" y="6645" width="774" height="976"/>
       <text class="TextShape"><tspan class="TextParagraph" font-family="Georgia, serif" font-size="635px" font-weight="400"><tspan class="TextPosition" x="7997" y="7354"><tspan fill="rgb(0,0,0)" stroke="none">1</tspan></tspan></tspan></text>
      </g>
     </g>
     <g class="com.sun.star.drawing.TextShape">
      <g id="id25">
       <rect class="BoundingBox" stroke="none" fill="none" x="6868" y="5080" width="880" height="976"/>
       <text class="TextShape"><tspan class="TextParagraph" font-family="Georgia, serif" font-size="635px" font-weight="400"><tspan class="TextPosition" x="7118" y="5789"><tspan fill="rgb(0,0,0)" stroke="none">n</tspan></tspan></tspan></text>
      </g>
     </g>
     <g class="com.sun.star.drawing.TextShape">
      <g id="id26">
       <rect class="BoundingBox" stroke="none" fill="none" x="2795" y="6605" width="774" height="976"/>
       <text class="TextShape"><tspan class="TextParagraph" font-family="Georgia, serif" font-size="635px" font-weight="400"><tspan class="TextPosition" x="3045" y="7314"><tspan fill="rgb(0,0,0)" stroke="none">1</tspan></tspan></tspan></text>
      </g>
     </g>
     <g class="com.sun.star.drawing.TextShape">
      <g id="id27">
       <rect class="BoundingBox" stroke="none" fill="none" x="3821" y="5081" width="880" height="976"/>
       <text class="TextShape"><tspan class="TextParagraph" font-family="Georgia, serif" font-size="635px" font-weight="400"><tspan class="TextPosition" x="4071" y="5790"><tspan fill="rgb(0,0,0)" stroke="none">n</tspan></tspan></tspan></text>
      </g>
     </g>
     <g class="com.sun.star.drawing.TextShape">
      <g id="id28">
       <rect class="BoundingBox" stroke="none" fill="none" x="14087" y="6645" width="774" height="976"/>
       <text class="TextShape"><tspan class="TextParagraph" font-family="Georgia, serif" font-size="635px" font-weight="400"><tspan class="TextPosition" x="14337" y="7354"><tspan fill="rgb(0,0,0)" stroke="none">1</tspan></tspan></tspan></text>
      </g>
     </g>
     <g class="com.sun.star.drawing.TextShape">
      <g id="id29">
       <rect class="BoundingBox" stroke="none" fill="none" x="13208" y="5080" width="880" height="976"/>
       <text class="TextShape"><tspan class="TextParagraph" font-family="Georgia, serif" font-size="635px" font-weight="400"><tspan class="TextPosition" x="13458" y="5789"><tspan fill="rgb(0,0,0)" stroke="none">n</tspan></tspan></tspan></text>
      </g>
     </g>
     <g class="com.sun.star.drawing.TextShape">
      <g id="id30">
       <rect class="BoundingBox" stroke="none" fill="none" x="7747" y="6645" width="774" height="976"/>
       <text class="TextShape"><tspan class="TextParagraph" font-family="Georgia, serif" font-size="635px" font-weight="400"><tspan class="TextPosition" x="7997" y="7354"><tspan fill="rgb(0,0,0)" stroke="none">1</tspan></tspan></tspan></text>
      </g>
     </g>
     <g class="com.sun.star.drawing.TextShape">
      <g id="id31">
       <rect class="BoundingBox" stroke="none" fill="none" x="6868" y="5080" width="880" height="976"/>
       <text class="TextShape"><tspan class="TextParagraph" font-family="Georgia, serif" font-size="635px" font-weight="400"><tspan class="TextPosition" x="7118" y="5789"><tspan fill="rgb(0,0,0)" stroke="none">n</tspan></tspan></tspan></text>
      </g>
     </g>
     <g class="com.sun.star.drawing.TextShape">
      <g id="id32">
       <rect class="BoundingBox" stroke="none" fill="none" x="9398" y="6645" width="774" height="976"/>
       <text class="TextShape"><tspan class="TextParagraph" font-family="Georgia, serif" font-size="635px" font-weight="400"><tspan class="TextPosition" x="9648" y="7354"><tspan fill="rgb(0,0,0)" stroke="none">1</tspan></tspan></tspan></text>
      </g>
     </g>
     <g class="com.sun.star.drawing.TextShape">
      <g id="id33">
       <rect class="BoundingBox" stroke="none" fill="none" x="10160" y="5121" width="880" height="976"/>
       <text class="TextShape"><tspan class="TextParagraph" font-family="Georgia, serif" font-size="635px" font-weight="400"><tspan class="TextPosition" x="10410" y="5830"><tspan fill="rgb(0,0,0)" stroke="none">n</tspan></tspan></tspan></text>
      </g>
     </g>
    </g>
   </g>
  </g>
 </g>
</svg>
