<svg version="1.2" viewBox="0 0 17780 12700" preserveAspectRatio="xMidYMid" fill-rule="evenodd" stroke-width="28.222" stroke-linejoin="round" xmlns="http://www.w3.org/2000/svg" xmlns:ooo="http://xml.openoffice.org/svg/export" xmlns:xlink="http://www.w3.org/1999/xlink" xmlns:presentation="http://sun.com/xmlns/staroffice/presentation" xmlns:smil="http://www.w3.org/2001/SMIL20/" xmlns:anim="urn:oasis:names:tc:opendocument:xmlns:animation:1.0" xml:space="preserve">
 <defs class="ClipPathGroup">
  <clipPath id="presentation_clip_path" clipPathUnits="userSpaceOnUse">
   <rect x="0" y="0" width="17780" height="12700"/>
  </clipPath>
 </defs>
 <defs class="TextShapeIndex">
  <g ooo:slide="id1" ooo:id-list="id3 id4 id5 id6 id7 id8 id9 id10 id11 id12 id13 id14 id15"/>
 </defs>
 <defs class="EmbeddedBulletChars">
  <g id="bullet-char-template(57356)" transform="scale(0.00048828125,-0.00048828125)">
   <path d="M 580,1141 L 1163,571 580,0 -4,571 580,1141 Z"/>
  </g>
  <g id="bullet-char-template(57354)" transform="scale(0.00048828125,-0.00048828125)">
   <path d="M 8,1128 L 1137,1128 1137,0 8,0 8,1128 Z"/>
  </g>
  <g id="bullet-char-template(10146)" transform="scale(0.00048828125,-0.00048828125)">
   <path d="M 174,0 L 602,739 174,1481 1456,739 174,0 Z M 1358,739 L 309,1346 659,739 1358,739 Z"/>
  </g>
  <g id="bullet-char-template(10132)" transform="scale(0.00048828125,-0.00048828125)">
   <path d="M 2015,739 L 1276,0 717,0 1260,543 174,543 174,936 1260,936 717,1481 1274,1481 2015,739 Z"/>
  </g>
  <g id="bullet-char-template(10007)" transform="scale(0.00048828125,-0.00048828125)">
   <path d="M 0,-2 C -7,14 -16,27 -25,37 L 356,567 C 262,823 215,952 215,954 215,979 228,992 255,992 264,992 276,990 289,987 310,991 331,999 354,1012 L 381,999 492,748 772,1049 836,1024 860,1049 C 881,1039 901,1025 922,1006 886,937 835,863 770,784 769,783 710,716 594,584 L 774,223 C 774,196 753,168 711,139 L 727,119 C 717,90 699,76 672,76 641,76 570,178 457,381 L 164,-76 C 142,-110 111,-127 72,-127 30,-127 9,-110 8,-76 1,-67 -2,-52 -2,-32 -2,-23 -1,-13 0,-2 Z"/>
  </g>
  <g id="bullet-char-template(10004)" transform="scale(0.00048828125,-0.00048828125)">
   <path d="M 285,-33 C 182,-33 111,30 74,156 52,228 41,333 41,471 41,549 55,616 82,672 116,743 169,778 240,778 293,778 328,747 346,684 L 369,508 C 377,444 397,411 428,410 L 1163,1116 C 1174,1127 1196,1133 1229,1133 1271,1133 1292,1118 1292,1087 L 1292,965 C 1292,929 1282,901 1262,881 L 442,47 C 390,-6 338,-33 285,-33 Z"/>
  </g>
  <g id="bullet-char-template(9679)" transform="scale(0.00048828125,-0.00048828125)">
   <path d="M 813,0 C 632,0 489,54 383,161 276,268 223,411 223,592 223,773 276,916 383,1023 489,1130 632,1184 813,1184 992,1184 1136,1130 1245,1023 1353,916 1407,772 1407,592 1407,412 1353,268 1245,161 1136,54 992,0 813,0 Z"/>
  </g>
  <g id="bullet-char-template(8226)" transform="scale(0.00048828125,-0.00048828125)">
   <path d="M 346,457 C 273,457 209,483 155,535 101,586 74,649 74,723 74,796 101,859 155,911 209,963 273,989 346,989 419,989 480,963 531,910 582,859 608,796 608,723 608,648 583,586 532,535 482,483 420,457 346,457 Z"/>
  </g>
  <g id="bullet-char-template(8211)" transform="scale(0.00048828125,-0.00048828125)">
   <path d="M -4,459 L 1135,459 1135,606 -4,606 -4,459 Z"/>
  </g>
 </defs>
 <defs class="TextEmbeddedBitmaps"/>
 <g>
  <g id="id2" class="Master_Slide">
   <g id="bg-id2" class="Background"/>
   <g id="bo-id2" class="BackgroundObjects"/>
  </g>
 </g>
 <g class="SlideGroup">
  <g>
   <g id="id1" class="Slide" clip-path="url(#presentation_clip_path)">
    <g class="Page">
     <g class="com.sun.star.drawing.CustomShape">
      <g id="id3">
       <rect class="BoundingBox" stroke="none" fill="none" x="6349" y="7619" width="5083" height="5083"/>
       <path fill="rgb(255,99,71)" stroke="none" d="M 8890,12700 L 6350,12700 6350,7620 11430,7620 11430,12700 8890,12700 Z"/>
       <path fill="none" stroke="rgb(52,101,164)" d="M 8890,12700 L 6350,12700 6350,7620 11430,7620 11430,12700 8890,12700 Z"/>
       <text class="TextShape"><tspan class="TextParagraph" font-family="Georgia, serif" font-size="706px" font-weight="700"><tspan class="TextPosition" x="6854" y="10406"><tspan fill="rgb(0,0,0)" stroke="none">Time Entry</tspan></tspan></tspan></text>
      </g>
     </g>
     <g class="com.sun.star.drawing.CustomShape">
      <g id="id4">
       <rect class="BoundingBox" stroke="none" fill="none" x="-1" y="-1" width="5083" height="5083"/>
       <path fill="rgb(60,179,113)" stroke="none" d="M 2540,5080 L 0,5080 0,0 5080,0 5080,5080 2540,5080 Z"/>
       <path fill="none" stroke="rgb(52,101,164)" d="M 2540,5080 L 0,5080 0,0 5080,0 5080,5080 2540,5080 Z"/>
       <text class="TextShape"><tspan class="TextParagraph" font-family="Georgia, serif" font-size="706px" font-weight="700"><tspan class="TextPosition" x="1679" y="2786"><tspan fill="rgb(0,0,0)" stroke="none">User</tspan></tspan></tspan></text>
      </g>
     </g>
     <g class="com.sun.star.drawing.CustomShape">
      <g id="id5">
       <rect class="BoundingBox" stroke="none" fill="none" x="12699" y="-1" width="5083" height="5083"/>
       <path fill="rgb(192,192,192)" stroke="none" d="M 15240,5080 L 12700,5080 12700,0 17780,0 17780,5080 15240,5080 Z"/>
       <path fill="none" stroke="rgb(52,101,164)" d="M 15240,5080 L 12700,5080 12700,0 17780,0 17780,5080 15240,5080 Z"/>
       <text class="TextShape"><tspan class="TextParagraph" font-family="Georgia, serif" font-size="706px" font-weight="700"><tspan class="TextPosition" x="14383" y="2786"><tspan fill="rgb(0,0,0)" stroke="none">Task</tspan></tspan></tspan></text>
      </g>
     </g>
     <g class="com.sun.star.drawing.CustomShape">
      <g id="id6">
       <rect class="BoundingBox" stroke="none" fill="none" x="6349" y="-1" width="5083" height="5083"/>
       <path fill="rgb(255,255,102)" stroke="none" d="M 8890,5080 L 6350,5080 6350,0 11430,0 11430,5080 8890,5080 Z"/>
       <path fill="none" stroke="rgb(52,101,164)" d="M 8890,5080 L 6350,5080 6350,0 11430,0 11430,5080 8890,5080 Z"/>
       <text class="TextShape"><tspan class="TextParagraph" font-family="Georgia, serif" font-size="706px" font-weight="700"><tspan class="TextPosition" x="7582" y="2786"><tspan fill="rgb(0,0,0)" stroke="none">Project</tspan></tspan></tspan></text>
      </g>
     </g>
     <g class="com.sun.star.drawing.LineShape">
      <g id="id7">
       <rect class="BoundingBox" stroke="none" fill="none" x="11430" y="5079" width="3812" height="2542"/>
       <path fill="none" stroke="rgb(0,0,0)" d="M 15240,5080 L 11788,7381"/>
       <path fill="rgb(0,0,0)" stroke="none" d="M 11430,7620 L 11888,7495 11721,7246 11430,7620 Z"/>
      </g>
     </g>
     <g class="com.sun.star.drawing.TextShape">
      <g id="id8">
       <rect class="BoundingBox" stroke="none" fill="none" x="11430" y="7547" width="880" height="976"/>
       <text class="TextShape"><tspan class="TextParagraph" font-family="Georgia, serif" font-size="635px" font-weight="400"><tspan class="TextPosition" x="11680" y="8256"><tspan fill="rgb(0,0,0)" stroke="none">n</tspan></tspan></tspan></text>
      </g>
     </g>
     <g class="com.sun.star.drawing.TextShape">
      <g id="id9">
       <rect class="BoundingBox" stroke="none" fill="none" x="15182" y="5080" width="774" height="976"/>
       <text class="TextShape"><tspan class="TextParagraph" font-family="Georgia, serif" font-size="635px" font-weight="400"><tspan class="TextPosition" x="15432" y="5789"><tspan fill="rgb(0,0,0)" stroke="none">1</tspan></tspan></tspan></text>
      </g>
     </g>
     <g class="com.sun.star.drawing.LineShape">
      <g id="id10">
       <rect class="BoundingBox" stroke="none" fill="none" x="8613" y="5079" width="301" height="2542"/>
       <path fill="none" stroke="rgb(0,0,0)" d="M 8763,5080 L 8763,7190"/>
       <path fill="rgb(0,0,0)" stroke="none" d="M 8763,7620 L 8913,7170 8613,7170 8763,7620 Z"/>
      </g>
     </g>
     <g class="com.sun.star.drawing.TextShape">
      <g id="id11">
       <rect class="BoundingBox" stroke="none" fill="none" x="1720" y="5080" width="774" height="976"/>
       <text class="TextShape"><tspan class="TextParagraph" font-family="Georgia, serif" font-size="635px" font-weight="400"><tspan class="TextPosition" x="1970" y="5789"><tspan fill="rgb(0,0,0)" stroke="none">1</tspan></tspan></tspan></text>
      </g>
     </g>
     <g class="com.sun.star.drawing.TextShape">
      <g id="id12">
       <rect class="BoundingBox" stroke="none" fill="none" x="8832" y="5083" width="774" height="976"/>
       <text class="TextShape"><tspan class="TextParagraph" font-family="Georgia, serif" font-size="635px" font-weight="400"><tspan class="TextPosition" x="9082" y="5792"><tspan fill="rgb(0,0,0)" stroke="none">1</tspan></tspan></tspan></text>
      </g>
     </g>
     <g class="com.sun.star.drawing.TextShape">
      <g id="id13">
       <rect class="BoundingBox" stroke="none" fill="none" x="8799" y="6604" width="880" height="976"/>
       <text class="TextShape"><tspan class="TextParagraph" font-family="Georgia, serif" font-size="635px" font-weight="400"><tspan class="TextPosition" x="9049" y="7313"><tspan fill="rgb(0,0,0)" stroke="none">n</tspan></tspan></tspan></text>
      </g>
     </g>
     <g class="com.sun.star.drawing.LineShape">
      <g id="id14">
       <rect class="BoundingBox" stroke="none" fill="none" x="2539" y="5079" width="3812" height="2542"/>
       <path fill="none" stroke="rgb(0,0,0)" d="M 2540,5080 L 5992,7381"/>
       <path fill="rgb(0,0,0)" stroke="none" d="M 6350,7620 L 6059,7246 5892,7495 6350,7620 Z"/>
      </g>
     </g>
     <g class="com.sun.star.drawing.TextShape">
      <g id="id15">
       <rect class="BoundingBox" stroke="none" fill="none" x="5461" y="7547" width="880" height="976"/>
       <text class="TextShape"><tspan class="TextParagraph" font-family="Georgia, serif" font-size="635px" font-weight="400"><tspan class="TextPosition" x="5711" y="8256"><tspan fill="rgb(0,0,0)" stroke="none">n</tspan></tspan></tspan></text>
      </g>
     </g>
    </g>
   </g>
  </g>
 </g>
</svg>
